<svg width="45" height="57" viewBox="0 0 45 57" fill="none" xmlns="http://www.w3.org/2000/svg">
<path d="M22.5208 27.5677L13.7789 22.4872V35.3549L22.5208 40.3937L45 27.4011V14.5334L22.5208 27.5677Z" fill="#4D91F6"/>
<path d="M22.5208 12.826L32.5948 18.656L43.7095 12.243L22.5208 0L1.33209 12.243L12.3635 18.6977L22.5208 12.826Z" fill="#4D91F6"/>
<path d="M11.1147 36.854V20.9464L0 14.5334V43.267L22.5208 56.3012L45 43.267V30.441L22.5208 43.4336L11.1147 36.854Z" fill="#4D91F6"/>
<g opacity="0.25">
<path d="M22.5208 27.5676L13.7789 22.4872V35.3548L22.5208 40.3936V27.5676Z" fill="black"/>
<path d="M22.5208 12.826V0L1.33209 12.243L12.3635 18.6977L22.5208 12.826Z" fill="black"/>
<path d="M11.1147 36.854V20.9464L0 14.5334V43.267L22.5208 56.3012V43.4336L11.1147 36.854Z" fill="black"/>
</g>
</svg>
